<?xml version="1.0" encoding="UTF-8"?>
<svg width="250px" height="300px" viewBox="0 0 250 300" version="1.1" xmlns="http://www.w3.org/2000/svg" xmlns:xlink="http://www.w3.org/1999/xlink">
    <title>rewarding-stack-overflow-community-with-realmoney-</title>
    <g id="Page-1" stroke="none" stroke-width="1" fill="none" fill-rule="evenodd">
        <g id="rewarding-stack-overflow-community-with-realmoney-" transform="translate(0.000000, -0.000000)" fill="#FA6401" fill-rule="nonzero">
            <path d="M197.963484,56.4558699 C192.465599,56.1489404 192.615037,52.0747426 190.906791,47.7499902 C184.824576,32.3534063 170.555488,34.4688035 168.738072,29.0120809 C166.985085,23.750433 173.704424,22.8842297 177.162973,21.6332461 C193.292429,15.798007 189.546637,1.84005419 196.113854,0.00304110299 C201.295861,-0.143622858 201.57684,5.04572212 203.07122,8.82900803 C208.968203,23.7575917 223.378675,21.3728482 225.224726,26.7051883 C227.223794,32.4795784 216.130487,34.0867076 212.756947,36.1484145 C203.008581,42.1071413 203.273453,54.5955015 197.963484,56.4558699 Z M197.040011,16.6633154 C193.578777,21.5670281 190.112175,25.0389998 184.863949,28.060868 C189.932312,31.4746753 193.730005,34.9385935 197.040011,40.1206008 C200.218476,37.7116967 202.0171,32.8008253 208.701541,28.060868 C203.963373,24.7642845 200.210422,21.5571848 197.040011,16.6633154 Z" id="Shape"></path>
            <path d="M26.2950626,76.3284339 C21.3126042,76.9870347 20.9913573,71.8426106 19.3654365,68.3786924 C14.3418156,57.6728497 4.69277659,59.7515585 2.91741784,55.543135 C0.606051085,50.066726 7.31823151,49.8027488 10.5781266,48.4927058 C20.8249174,44.374661 19.4665532,34.0750747 24.2440937,32.2281289 C29.4520514,31.9355169 29.2435541,35.9533398 31.012649,39.8190403 C35.610327,49.8698616 45.1555648,48.4291723 47.519727,52.5176875 C50.316096,57.3524976 43.7068219,58.394984 40.6455809,59.6844457 C28.8023989,64.6713783 31.7589439,74.0806006 26.2950626,76.3284339 Z M25.3017923,48.9786029 C23.3242002,50.8497093 21.3680842,52.8013512 19.2052605,54.4576964 C21.5273653,55.8276935 24.3317879,59.809723 25.3017923,60.2392453 C27.116524,57.9520391 28.8963569,56.1113572 31.3115249,54.4576964 C30.0533825,53.2765102 26.5232463,49.4528671 25.3017923,48.9786029 Z" id="Shape"></path>
            <path d="M68.9484144,121.011278 C52.4833938,83.5766223 79.1674653,42.6342009 119.584617,40.1206008 C121.566683,39.8789945 123.840467,40.003377 125.825217,40.1134421 C169.253499,42.523241 193.802487,91.2230137 171.747413,127.732407 C169.824406,130.916241 167.326018,133.598071 165.234781,136.649469 L226.994716,136.64231 C240.81191,136.643205 249.485576,137.85571 249.413989,155.417803 C249.367457,166.776877 247.599257,173.61523 235.232595,176.132409 C235.137742,183.303642 235.232595,190.489191 235.232595,197.661319 C254.275644,199.726605 255.558842,233.026214 235.232595,237.130836 L235.232595,258.393084 C244.603339,259.871356 249.179541,266.856463 249.248444,276.047344 C249.378195,293.459999 243.983217,298.696591 226.824696,298.688537 L161.783391,298.683168 C148.791237,298.642006 136.64202,301.478643 126.810434,291.340127 C122.063318,293.051952 117.312623,294.765567 112.422333,296.030868 C63.8299406,308.601554 14.7337547,278.746176 2.64091287,230.231635 C-9.37318316,182.030287 20.794493,132.781084 68.9484144,121.011278 Z M118.531392,48.9786029 C90.2938819,52.1454349 70.1582355,75.8380626 73.4780848,104.416506 C74.0364637,109.230735 75.1702236,114.725041 77.9370629,118.789396 C82.8416704,119.379989 87.8912417,118.603269 92.8450653,118.830558 C106.766061,119.468578 122.104481,124.40361 134.172267,131.30997 C138.514916,133.919318 142.931837,136.877652 146.655258,140.324569 C191.43564,115.151879 170.227083,44.9527264 118.531392,48.9786029 Z M83.6846079,127.957012 C10.6694001,134.168978 -17.5756269,224.460824 38.7968454,271.580313 C53.4793486,283.853912 76.9258959,292.455095 96.1908649,289.687361 C116.566328,288.593869 136.622334,278.068784 150.119176,262.950494 C199.082926,208.101394 155.136534,124.738279 83.6846079,127.957012 Z M228.745914,145.598744 L153.213527,145.598744 C158.328421,152.316294 163.99722,158.213277 167.771647,165.889198 L168.462462,167.214453 L226.965186,167.226981 C238.674142,167.318254 241.622634,167.299463 240.874549,152.768187 C240.514824,145.784871 234.572205,144.822025 228.745914,145.598744 Z M173.306221,176.132409 C174.744225,181.952436 177.382208,192.322715 179.1692,197.661319 L226.257369,197.661319 C226.44618,194.817523 226.293163,191.952252 226.269002,189.102192 L226.257369,176.132409 L190.864733,176.133304 C185.033969,176.134199 179.128932,176.329274 173.306221,176.132409 Z M207.091727,206.63207 L179.515502,206.63207 C179.52803,214.973751 178.315524,220.402733 177.810836,228.165454 L211.697459,228.165454 L225.437697,228.18514 C239.307688,228.184245 240.810121,227.69119 240.575673,213.510691 C240.434289,204.967671 231.384791,206.612384 225.547763,206.613279 L207.091727,206.63207 Z M175.214015,237.130836 C172.626144,246.559745 168.510783,250.774433 165.234781,258.393084 L216.265607,258.393084 L226.257369,258.393084 L226.257369,237.130836 L175.214015,237.130836 Z M161.783391,267.443476 L158.120819,267.443476 C150.717823,275.599031 144.572075,280.981482 135.087686,286.76303 C140.224952,290.156256 145.117032,289.698099 151.06502,289.700784 L213.921131,289.687361 L226.367434,289.719575 C230.270718,289.724944 235.086736,290.388019 238.18914,287.442213 C241.636056,284.16979 241.398924,272.45099 238.020016,269.158881 C235.327448,266.535216 227.572781,267.439002 224.133918,267.439002 L161.783391,267.443476 Z" id="Shape"></path>
            <path d="M120.366705,72.9987414 C120.322858,70.7705946 120.474086,69.7370566 122.666439,68.8824863 C125.126349,69.281584 125.086081,70.7813327 125.015389,72.9987414 C130.421106,73.9087917 135.42504,75.8577491 138.237516,80.9744332 C139.426756,83.1372568 140.260745,86.2325017 137.505539,87.530017 C131.697145,90.2646421 132.567822,82.4983424 125.015389,80.0106926 C124.78989,84.081311 125.017179,88.2208319 125.015389,92.3012936 C147.017668,93.354518 143.287088,120.239928 125.015389,118.789396 C124.953645,121.125818 125.296368,122.567402 122.666439,123.004083 C120.565359,122.529819 120.694216,120.614865 120.366705,118.789396 C106.256898,120.108387 100.571992,99.3928853 110.873368,103.635313 C114.698801,105.211123 112.60309,109.262055 120.366705,112.303609 C120.526881,108.091606 120.372969,103.821439 120.366705,99.6031723 C117.416424,98.4148273 113.765485,98.1383224 111.201774,96.183996 C100.739327,88.2100939 107.167844,74.3696333 120.366705,72.9987414 Z M119.584617,80.0106926 C115.111321,81.8907474 110.875158,86.7470336 116.628967,90.3729175 C117.896057,90.9796177 119.130934,91.6355341 120.366705,92.3012936 C120.331807,90.1331009 120.627998,81.3914277 120.182369,80.1565512 L119.584617,80.0106926 Z M125.015389,99.6031723 C124.98049,103.830387 125.191672,108.084448 125.015389,112.303609 C127.034144,111.778339 128.513311,111.270966 130.20724,110.023562 C135.046524,104.942671 130.943691,100.673399 125.015389,99.6031723 Z" id="Shape"></path>
            <path d="M87.09931,164.433296 C86.8308586,161.776522 85.844747,158.797606 88.6267986,157.268328 C92.9247059,157.351548 92.0415007,161.241409 92.078189,164.433296 C107.653741,164.456562 120.873184,171.904299 123.504007,188.109817 C118.116187,187.993488 112.748949,188.099079 107.356654,188.109817 C106.087774,180.145758 99.616305,176.851859 92.078189,176.132409 L92.078189,198.130214 C100.904872,199.47426 110.895739,202.65183 117.496065,208.881693 C125.503971,216.44218 126.328116,230.551987 118.577924,238.586738 C111.752099,245.664907 101.500834,247.520801 92.078189,247.661291 L92.078189,255.681725 L87.09931,255.681725 C86.9257114,253.02495 87.0617268,250.322539 87.09931,247.661291 C70.5072224,244.402291 58.6989391,242.621563 55.4256214,222.819691 C60.4304508,222.449228 65.7252077,221.983017 70.7175093,222.411645 C73.0431935,230.36765 79.3616451,233.500478 87.09931,235.104923 L87.09931,211.238697 C78.8551668,209.508975 70.0964917,207.924216 63.7028736,201.979807 C55.9106236,194.733408 55.5294226,180.898317 62.8474084,173.181233 C68.9842079,166.709764 78.5187077,164.622107 87.09931,164.433296 Z M85.5127621,176.132409 C74.8856651,178.22633 66.7175831,187.686558 77.9370629,194.424689 C80.821126,195.786633 84.0586502,196.692209 87.09931,197.661319 C87.193268,191.733911 87.6362128,182.105453 86.9937191,176.389228 C86.4827666,176.042031 86.1140933,176.141358 85.5127621,176.132409 Z M92.078189,212.198858 C92.0692407,219.830932 91.9636498,227.474639 92.078189,235.104923 C96.621282,234.70493 100.923663,234.310307 104.684668,231.460248 C114.857187,221.869373 102.563902,213.494583 92.078189,212.198858 Z" id="Shape"></path>
        </g>
    </g>
</svg>
