<?xml version="1.0" encoding="utf-8" ?>
<svg xmlns="http://www.w3.org/2000/svg" xmlns:xlink="http://www.w3.org/1999/xlink" width="250" height="250">
	<path transform="scale(0.488281 0.488281)" d="M337.922 152.609C331.778 152.266 331.945 147.713 330.036 142.88C323.239 125.674 307.293 128.038 305.262 121.94C303.303 116.06 310.812 115.092 314.677 113.694C332.702 107.173 328.516 91.5747 335.855 89.5218C341.646 89.3579 341.96 95.1571 343.63 99.385C350.22 116.068 366.324 113.403 368.387 119.362C370.621 125.815 358.224 127.611 354.454 129.915C343.56 136.574 343.856 150.53 337.922 152.609ZM336.89 108.14C333.022 113.62 329.148 117.5 323.283 120.877C328.947 124.692 333.191 128.563 336.89 134.354C340.442 131.662 342.452 126.174 349.922 120.877C344.627 117.193 340.433 113.609 336.89 108.14Z"/>
	<path transform="scale(0.488281 0.488281)" d="M146.079 174.817C140.511 175.553 140.152 169.804 138.335 165.933C132.721 153.969 121.938 156.292 119.954 151.589C117.371 145.469 124.872 145.174 128.515 143.71C139.966 139.108 138.448 127.598 143.787 125.534C149.607 125.207 149.374 129.697 151.351 134.017C156.489 145.249 167.156 143.639 169.798 148.208C172.923 153.611 165.537 154.776 162.116 156.217C148.881 161.79 152.185 172.305 146.079 174.817ZM144.969 144.253C142.759 146.344 140.573 148.525 138.156 150.376C140.751 151.907 143.885 156.357 144.969 156.837C146.997 154.281 148.986 152.224 151.685 150.376C150.279 149.056 146.334 144.783 144.969 144.253Z"/>
	<path transform="scale(0.488281 0.488281)" d="M193.745 224.751C175.345 182.917 205.165 137.163 250.332 134.354C252.547 134.084 255.088 134.223 257.306 134.346C305.838 137.039 333.272 191.462 308.625 232.262C306.476 235.82 303.684 238.817 301.347 242.227L370.365 242.219C385.806 242.22 395.499 243.575 395.419 263.201C395.367 275.895 393.391 283.537 379.571 286.35C379.465 294.364 379.571 302.394 379.571 310.409C400.852 312.717 402.286 349.93 379.571 354.517L379.571 378.278C390.043 379.93 395.157 387.736 395.234 398.007C395.379 417.466 389.35 423.318 370.175 423.309L297.49 423.303C282.971 423.257 269.394 426.427 258.407 415.097C253.102 417.01 247.793 418.925 242.328 420.339C188.025 434.387 133.159 401.023 119.645 346.807C106.219 292.941 139.932 237.904 193.745 224.751ZM249.155 144.253C217.599 147.792 195.097 174.269 198.807 206.206C199.431 211.586 200.698 217.726 203.79 222.268C209.271 222.928 214.914 222.06 220.45 222.314C236.007 223.027 253.148 228.542 266.634 236.26C271.487 239.176 276.423 242.482 280.584 246.334C330.627 218.203 306.926 139.754 249.155 144.253ZM210.213 232.513C128.617 239.455 97.0526 340.358 160.05 393.015C176.458 406.731 202.66 416.343 224.189 413.25C246.959 412.028 269.372 400.266 284.455 383.371C339.173 322.076 290.062 228.916 210.213 232.513ZM372.322 252.228L287.913 252.228C293.629 259.735 299.964 266.325 304.182 274.903L304.954 276.384L370.332 276.398C383.417 276.5 386.712 276.479 385.876 260.24C385.474 252.436 378.833 251.36 372.322 252.228ZM310.367 286.35C311.974 292.854 314.922 304.443 316.919 310.409L369.541 310.409C369.752 307.231 369.581 304.029 369.554 300.844L369.541 286.35L329.989 286.351C323.473 286.352 316.874 286.57 310.367 286.35ZM348.123 320.434L317.306 320.434C317.32 329.756 315.965 335.823 315.401 344.498L353.27 344.498L368.625 344.52C384.125 344.519 385.804 343.968 385.542 328.121C385.384 318.574 375.271 320.412 368.748 320.413L348.123 320.434ZM312.499 354.517C309.607 365.054 305.008 369.764 301.347 378.278L358.375 378.278L369.541 378.278L369.541 354.517L312.499 354.517ZM297.49 388.392L293.397 388.392C285.124 397.506 278.256 403.521 267.657 409.982C273.398 413.774 278.865 413.262 285.512 413.265L355.755 413.25L369.664 413.286C374.026 413.292 379.408 414.033 382.875 410.741C386.727 407.084 386.462 393.988 382.686 390.309C379.677 387.377 371.011 388.387 367.168 388.387L297.49 388.392Z"/>
	<path transform="scale(0.488281 0.488281)" d="M251.206 171.096C251.157 168.606 251.326 167.451 253.776 166.496C256.525 166.942 256.48 168.618 256.401 171.096C262.442 172.113 268.034 174.291 271.177 180.009C272.506 182.426 273.438 185.885 270.359 187.335C263.868 190.391 264.841 181.712 256.401 178.932C256.149 183.481 256.403 188.107 256.401 192.667C280.989 193.844 276.82 223.889 256.401 222.268C256.332 224.879 256.715 226.49 253.776 226.978C251.428 226.448 251.572 224.308 251.206 222.268C235.438 223.742 229.085 200.592 240.597 205.333C244.872 207.094 242.53 211.621 251.206 215.02C251.385 210.313 251.213 205.541 251.206 200.827C247.909 199.499 243.829 199.19 240.964 197.006C229.272 188.095 236.456 172.628 251.206 171.096ZM250.332 178.932C245.333 181.033 240.599 186.46 247.029 190.512C248.445 191.19 249.825 191.923 251.206 192.667C251.167 190.244 251.498 180.475 251 179.095L250.332 178.932ZM256.401 200.827C256.362 205.551 256.598 210.305 256.401 215.02C258.657 214.433 260.31 213.866 262.203 212.472C267.611 206.794 263.026 202.023 256.401 200.827Z"/>
	<path transform="scale(0.488281 0.488281)" d="M214.029 273.276C213.729 270.307 212.627 266.978 215.736 265.269C220.539 265.362 219.552 269.709 219.593 273.276C236.999 273.302 251.772 281.625 254.712 299.735C248.691 299.605 242.693 299.723 236.667 299.735C235.249 290.835 228.017 287.154 219.593 286.35L219.593 310.933C229.457 312.435 240.622 315.986 247.998 322.948C256.947 331.397 257.868 347.165 249.207 356.144C241.579 364.054 230.123 366.128 219.593 366.285L219.593 375.248L214.029 375.248C213.835 372.279 213.987 369.259 214.029 366.285C195.487 362.643 182.291 360.653 178.633 338.524C184.226 338.11 190.143 337.589 195.722 338.068C198.321 346.959 205.382 350.46 214.029 352.253L214.029 325.582C204.816 323.649 195.028 321.878 187.883 315.235C179.175 307.137 178.749 291.676 186.927 283.052C193.785 275.82 204.44 273.487 214.029 273.276ZM212.256 286.35C200.38 288.69 191.252 299.262 203.79 306.792C207.013 308.314 210.631 309.326 214.029 310.409C214.134 303.785 214.629 293.025 213.911 286.637C213.34 286.249 212.928 286.36 212.256 286.35ZM219.593 326.655C219.583 335.184 219.465 343.726 219.593 352.253C224.67 351.806 229.478 351.365 233.681 348.18C245.049 337.462 231.311 328.103 219.593 326.655Z"/>
</svg>
